<svg xmlns="http://www.w3.org/2000/svg" viewBox="0 0 207.06 351.85"><defs><style>.cls-1{fill:#221f20}.cls-2{fill:#079c56}.cls-4{fill:#fbda48}.cls-6{fill:#d73835}</style></defs><g id="Layer_2" data-name="Layer 2"><g id="Layer_1-2" data-name="Layer 1"><path class="cls-1" d="M29.78,180.47h.95q4.87.6,5.51,4.54l.1.6a1.06,1.06,0,0,1,0,.25q-.15,2.52-8.6,13.36-12.13,19.31-12.21,20.53v.05q-3.09,7.55-6.72,7.54H8.17q-3.9,0-5.61-5.13a1.5,1.5,0,0,1,0-.44q.2-3.21,7.81-16.2-6.13-4.51-8.58-19.37a3.73,3.73,0,0,1,2.1-2.72H5.77q3.6,0,6.67,9.7c1.17,2.41,1.89,3.62,2.19,3.62A73.64,73.64,0,0,0,26,182.57Q28.39,180.47,29.78,180.47Z"/><path class="cls-1" d="M51.68,178.66h1.63q5.77,1,6.83,7.26c.38,2.19.36,6.59,0,13.19-.13,2.2-.3,4.63-.52,7.31q4.94.11,5.49,3.48a5.74,5.74,0,0,1,.08,1.4q-.34,4.77-5.65,5.47c0,.41,0,.82,0,1.21q-.37,6.36-4.89,6.36t-6.79-7.55c-2.56.36-7.12.66-13.65.88q-1.73,3.95-4.22,3.94h-.68q-3-.41-3.42-2.72l-.15-.91q2.2-11,16.51-31.78Q48.2,178.65,51.68,178.66ZM39.26,207.38l0,.31c2.85-.4,5.84-.78,9-1.16.3-.35.54-1.89.7-4.62.13-2.23.22-5.24.26-9A79.75,79.75,0,0,0,39.26,207.38Z"/><path class="cls-1" d="M83.24,179.77c2.47.54,3.85,1.64,4.14,3.32l.14.91a5.72,5.72,0,0,1,0,1.29q-.21,3.56-2.75,14-3.14,13-3.5,14.78,10.26-1,13.29-1,3.89,0,4.34,2.72l.06.31q-.58,6.11-20.92,11.2a18.16,18.16,0,0,1-1.88.31q-6.33-1-7.1-5.44L69,221.3a15.17,15.17,0,0,1-.09-3.13,85.07,85.07,0,0,1,2.72-14.42q3.35-13.19,6-18.57T83.24,179.77Z"/><path class="cls-1" d="M117.32,179.77c2.47.54,3.85,1.64,4.13,3.32l.15.91a6.38,6.38,0,0,1,0,1.29q-.21,3.56-2.76,14-3.14,13-3.49,14.78,10.26-1,13.29-1,3.89,0,4.34,2.72l.06.31q-.58,6.11-20.92,11.2a18.63,18.63,0,0,1-1.88.31q-6.34-1-7.1-5.44l-.14-.91a13.87,13.87,0,0,1-.09-3.13,84.07,84.07,0,0,1,2.72-14.42q3.34-13.19,5.94-18.57C113.34,181.59,115.24,179.79,117.32,179.77Z"/><path class="cls-1" d="M164.59,178.66h1.65q5.88,1,7,7.26.57,3.29,0,13.19c-.13,2.2-.3,4.63-.52,7.31q5,.11,5.59,3.48a5.27,5.27,0,0,1,.09,1.4q-.34,4.77-5.75,5.47c0,.41,0,.82,0,1.21q-.37,6.36-5,6.36t-6.92-7.55q-3.92.54-13.9.88-1.75,3.95-4.3,3.94h-.68c-2.06-.27-3.22-1.18-3.5-2.72l-.14-.91q2.24-11,16.78-31.78Q161,178.65,164.59,178.66ZM152,207.38l0,.31c2.9-.4,5.94-.78,9.12-1.16.31-.35.55-1.89.71-4.62.13-2.23.21-5.24.25-9A79.8,79.8,0,0,0,152,207.38Z"/><path class="cls-1" d="M30.19,238.07q2.53,0,3.74,3.12c0,.12,0,.24,0,.37Q33.66,246.2,13.56,275a9,9,0,0,1-4.14,1.71q-4.8,0-6.45-5.71l0-.26q-.72-4-1.23-30.15a3.42,3.42,0,0,1,2.82-2h.63q4,0,6.1,7.39l1,10.82,9-11.94Q27.09,238.08,30.19,238.07Z"/><path class="cls-1" d="M50.17,233h1.62a7.6,7.6,0,0,1,6.79,6.68q.57,3,0,12.14c-.12,2-.28,4.26-.48,6.72,3.25.07,5.07,1.13,5.45,3.2a5.3,5.3,0,0,1,.09,1.29q-.33,4.38-5.58,5c0,.38,0,.75,0,1.12-.24,3.89-1.84,5.84-4.83,5.84s-5.27-2.31-6.75-6.94c-2.54.33-7,.61-13.53.81q-1.68,3.63-4.16,3.63h-.67c-2-.26-3.14-1.09-3.4-2.51l-.15-.83Q26.71,259,40.78,240,46.74,233,50.17,233ZM38,259.43l0,.29c2.82-.37,5.78-.72,8.87-1.07.3-.32.52-1.74.67-4.25q.19-3.08.22-8.32A73.23,73.23,0,0,0,38,259.43Z"/><path class="cls-1" d="M104.67,234c4.2.65,6.57,2.31,7.1,5a8.44,8.44,0,0,1,0,1.85q-.31,5.21-3.46,22.89c0,1.12,0,2.17,0,3.13q-.46,7.92-5.48,7.92h-.31q-3.87,0-5.51-5c0-1.07,0-2.33.12-3.79a148.92,148.92,0,0,1,2.35-15.81q-6.94,12-11.1,12.52a5.12,5.12,0,0,1-.77.07q-3.62,0-5.8-4.83a55.73,55.73,0,0,0-1.65-5.5l-6.49,21a6.12,6.12,0,0,1-3,1q-3,0-4.29-3.68a8.58,8.58,0,0,1-.09-2.23q.42-7.12,8-27.25,2.74-5,6.38-5h.66q5.79,0,7.95,10.8.3,0,5.43-6.59Q101,234.25,104.67,234Z"/><path class="cls-1" d="M133.24,234.05A6.11,6.11,0,0,1,134,234q2.34,0,4.68,2.49,5.85,0,10.81,8.53l1.15,3.41a18,18,0,0,1,.21,3.95q-.51,8.31-8.71,17.67-7.5,6.81-14,6.82-7.17,0-12-7.09a15.2,15.2,0,0,1-2.24-6,21.08,21.08,0,0,1-.25-4.82q.55-9.39,9.3-19.06Q128.76,234.52,133.24,234.05Zm-9.7,29.73c.78,2.29,1.47,3.44,2.07,3.44h.91q4.46,0,9.77-6.85c2.55-3.73,3.92-7.07,4.09-10a9.62,9.62,0,0,0-.1-2.22l-.09-.58q-2.17-5.39-3.91-5.39h-.9q-7.35,4.44-10.75,13.65a14.92,14.92,0,0,0-1.08,5C123.5,261.79,123.5,262.76,123.54,263.78Z"/><path class="cls-1" d="M164.1,234.66a28.41,28.41,0,0,1,5.8-.66q6.42,0,9.9,3.92a6.87,6.87,0,0,1,1.72,4.41,4.59,4.59,0,0,1-.27,1.25c-.7,1.65-2.19,2.52-4.5,2.62a6.22,6.22,0,0,1-2.63-1,12.18,12.18,0,0,0-4.15-1.33,5.61,5.61,0,0,0-.94-.07,10.08,10.08,0,0,0-5.22,1.81q14.16,10,15.41,16.52a10.6,10.6,0,0,1,.18,2.61q-.41,6.71-10.24,10.88a17.16,17.16,0,0,1-5.29,1.11q-9.39,0-12-5.24l-.11-.54a1.86,1.86,0,0,1,0-.47c.08-1.36,1.08-2,3-2l.78,0c.52.05,1.05.07,1.58.07a27.76,27.76,0,0,0,6.56-.87c3-.72,4.58-2.25,4.72-4.58a3.16,3.16,0,0,0-.05-.68l-.17-.83q-.37-2-12.09-10.73a9.63,9.63,0,0,1-3-5.24,6.9,6.9,0,0,1-.12-1.74Q153.35,236.95,164.1,234.66Z"/><path class="cls-1" d="M21.57,281.49q13.41,1.58,15,10.94a11.08,11.08,0,0,1,.1,2.3q-.63,10.54-19.4,23.54l7.7-1.72a29,29,0,0,1,7.42-1.15,12.71,12.71,0,0,1,3.4.42c2.65.73,4.3,3,5,6.89a2.32,2.32,0,0,1,0,.52q-.3,4.8-22.52,6.4-2.85.24-5.28.24a31.82,31.82,0,0,1-7.25-.72Q1,328.06.31,323.68l-.26-1.45a1.19,1.19,0,0,1,0-.33q.18-3,10.59-12.45,12.68-10.68,13-15.54a3.72,3.72,0,0,0,0-.75l-.08-.37h-.42q-5.23,0-14.51,3.63c-3.28-.54-5.1-1.87-5.48-4L2.84,291a3.75,3.75,0,0,1,0-.88q.31-5.22,16-8.22Z"/><path class="cls-1" d="M68.62,281.28a7.57,7.57,0,0,1,.95-.06c2,0,4,1,6.06,3.08q7.61,0,14.06,10.58l1.49,4.23a20.55,20.55,0,0,1,.28,4.9q-.61,10.31-11.22,21.9-9.7,8.47-18.11,8.47-9.32,0-15.64-8.8a18.44,18.44,0,0,1-2.92-7.43,26.22,26.22,0,0,1-.35-6q.7-11.62,12-23.63Q62.81,281.86,68.62,281.28ZM56.14,318.15q1.53,4.26,2.7,4.26H60q5.77,0,12.64-8.49,4.95-7,5.27-12.39a11.89,11.89,0,0,0-.14-2.75l-.12-.73c-1.88-4.45-3.58-6.68-5.08-6.68H71.41q-9.49,5.5-13.87,16.93a17.63,17.63,0,0,0-1.39,6.25A35.88,35.88,0,0,0,56.14,318.15Z"/><path class="cls-1" d="M123.28,280.46q7.26,1.26,8,5.38l.12.71a3.26,3.26,0,0,1,.05.83q-.25,4.49-11.35,10.42c-2,1.35-3.06,2.18-3.07,2.49v0l0,.34q9.39,4.36,10.62,11.49a13.34,13.34,0,0,1,.19,3.07q-.5,8.2-11.62,14.85a26.23,26.23,0,0,1-6.41,1.44q-11.18-1-12.23-7.16l-.12-.74a4,4,0,0,1-.07-1c.1-1.7,1.46-2.68,4.07-2.92l2.07.34q8.47,0,11.25-7.53-.51-2.89-15.16-3.57-4-2.55-4.33-4.67L95,302.47c0-.12,0-.25,0-.37q.21-3.47,14.76-10a70.84,70.84,0,0,1-11.18,1.42c-.38,0-.73,0-1,0q-6.29-.82-7-5.1a4.15,4.15,0,0,1,0-.92q.28-4.89,13.41-5.9Q120.88,280.46,123.28,280.46Z"/><path class="cls-1" d="M156.59,281.28a7.42,7.42,0,0,1,.94-.06q3,0,6.07,3.08,7.59,0,14.05,10.58l1.5,4.23a21.64,21.64,0,0,1,.28,4.9q-.62,10.31-11.23,21.9-9.7,8.47-18.11,8.47-9.3,0-15.64-8.8a18.43,18.43,0,0,1-2.91-7.43,25.66,25.66,0,0,1-.35-6q.69-11.62,12-23.63Q150.77,281.86,156.59,281.28ZM144.1,318.15q1.53,4.26,2.71,4.26H148q5.79,0,12.64-8.49,4.95-7,5.28-12.39a12.47,12.47,0,0,0-.14-2.75l-.13-.73c-1.88-4.45-3.58-6.68-5.08-6.68h-1.17q-9.51,5.5-13.88,16.93a17.42,17.42,0,0,0-1.38,6.25A35.76,35.76,0,0,0,144.1,318.15Z"/><path class="cls-1" d="M9,351.69l0-4.32-2.1,3.51h-1l-2.08-3.39v4.2H1.6v-8.14H3.5l2.86,4.69,2.79-4.69H11l0,8.14Z"/><path class="cls-1" d="M14.48,351.3a4.07,4.07,0,0,1-2.21-3.68,4.07,4.07,0,0,1,2.21-3.69,5.23,5.23,0,0,1,4.63,0,4.22,4.22,0,0,1,1.62,5.86,4.07,4.07,0,0,1-1.62,1.51,4.79,4.79,0,0,1-2.32.55A4.75,4.75,0,0,1,14.48,351.3Zm3.43-1.65a2.08,2.08,0,0,0,.79-.82,2.69,2.69,0,0,0,0-2.43,2.15,2.15,0,0,0-.79-.82,2.29,2.29,0,0,0-2.23,0,2.15,2.15,0,0,0-.79.82,2.69,2.69,0,0,0,0,2.43,2.08,2.08,0,0,0,.79.82,2.29,2.29,0,0,0,2.23,0Z"/><path class="cls-1" d="M26.08,349.52H24.83v2.17h-2.3v-8.14h3.72a4.68,4.68,0,0,1,1.91.36,2.76,2.76,0,0,1,1.7,2.65,2.88,2.88,0,0,1-.41,1.54,2.83,2.83,0,0,1-1.18,1L30,351.69H27.56Zm1.1-3.84a1.59,1.59,0,0,0-1.07-.32H24.83v2.39h1.28a1.64,1.64,0,0,0,1.07-.31,1.1,1.1,0,0,0,.36-.88A1.09,1.09,0,0,0,27.18,345.68Z"/><path class="cls-1" d="M32.91,351.3a4.11,4.11,0,0,1-1.61-1.51,4.3,4.3,0,0,1,0-4.35,4.18,4.18,0,0,1,1.61-1.51,5.25,5.25,0,0,1,4.64,0,4.21,4.21,0,0,1,1.62,1.51,4.16,4.16,0,0,1-1.62,5.86,5.17,5.17,0,0,1-4.64,0Zm3.44-1.65a2.15,2.15,0,0,0,.79-.82,2.69,2.69,0,0,0,0-2.43,2.22,2.22,0,0,0-.79-.82,2.25,2.25,0,0,0-1.12-.29,2.14,2.14,0,0,0-1.91,1.11,2.69,2.69,0,0,0,0,2.43,2.1,2.1,0,0,0,.8.82,2.19,2.19,0,0,0,1.11.29A2.25,2.25,0,0,0,36.35,349.65Z"/><path class="cls-1" d="M42.72,351.31a4,4,0,0,1-1.59-1.51,4.34,4.34,0,0,1,0-4.37,4,4,0,0,1,1.59-1.5,4.85,4.85,0,0,1,2.3-.54,5,5,0,0,1,2,.39,3.82,3.82,0,0,1,1.49,1.14l-1.47,1.33a2.43,2.43,0,0,0-3.09-.67,2.06,2.06,0,0,0-.81.82,2.78,2.78,0,0,0,0,2.43,2,2,0,0,0,.81.82,2.37,2.37,0,0,0,1.18.29,2.4,2.4,0,0,0,1.91-.95l1.47,1.32A3.82,3.82,0,0,1,47,351.45a5.21,5.21,0,0,1-4.31-.14Z"/><path class="cls-1" d="M51.13,351.31a4,4,0,0,1-1.6-1.51,4.41,4.41,0,0,1,0-4.37,4.06,4.06,0,0,1,1.6-1.5,4.81,4.81,0,0,1,2.29-.54,5,5,0,0,1,2,.39,3.78,3.78,0,0,1,1.48,1.14l-1.46,1.33a2.45,2.45,0,0,0-3.1-.67,2.1,2.1,0,0,0-.8.82,2.69,2.69,0,0,0,0,2.43,2,2,0,0,0,.8.82,2.4,2.4,0,0,0,1.18.29,2.43,2.43,0,0,0,1.92-.95l1.46,1.32a3.78,3.78,0,0,1-1.48,1.14,4.86,4.86,0,0,1-2,.4A4.81,4.81,0,0,1,51.13,351.31Z"/><path class="cls-1" d="M59.56,351.3a4.07,4.07,0,0,1-2.21-3.68,4.07,4.07,0,0,1,2.21-3.69,5.23,5.23,0,0,1,4.63,0,4.22,4.22,0,0,1,1.62,5.86,4.07,4.07,0,0,1-1.62,1.51,5.15,5.15,0,0,1-4.63,0ZM63,349.65a2.08,2.08,0,0,0,.79-.82,2.69,2.69,0,0,0,0-2.43,2.15,2.15,0,0,0-.79-.82,2.29,2.29,0,0,0-2.23,0,2.15,2.15,0,0,0-.79.82,2.69,2.69,0,0,0,0,2.43,2.08,2.08,0,0,0,.79.82,2.29,2.29,0,0,0,2.23,0Z"/><path class="cls-1" d="M76.63,343.91a2.89,2.89,0,0,1,1.25,1,2.83,2.83,0,0,1,.44,1.6,2.74,2.74,0,0,1-1.69,2.63,4.6,4.6,0,0,1-1.92.37H73.29v2.13H71v-8.14h3.72A4.77,4.77,0,0,1,76.63,343.91Zm-1,3.53a1.1,1.1,0,0,0,.36-.88,1.09,1.09,0,0,0-.36-.88,1.59,1.59,0,0,0-1.07-.32H73.29v2.39h1.28A1.64,1.64,0,0,0,75.64,347.44Z"/><path class="cls-1" d="M81.34,351.3a4.22,4.22,0,0,1-1.61-5.86,4.11,4.11,0,0,1,1.61-1.51,5.25,5.25,0,0,1,4.64,0,4.28,4.28,0,0,1,1.62,1.51,4.37,4.37,0,0,1,0,4.35A4.21,4.21,0,0,1,86,351.3a5.17,5.17,0,0,1-4.64,0Zm3.44-1.65a2.15,2.15,0,0,0,.79-.82,2.69,2.69,0,0,0,0-2.43,2.22,2.22,0,0,0-.79-.82,2.31,2.31,0,0,0-2.24,0,2.22,2.22,0,0,0-.79.82,2.69,2.69,0,0,0,0,2.43,2.15,2.15,0,0,0,.79.82,2.31,2.31,0,0,0,2.24,0Z"/><path class="cls-1" d="M93,349.52H91.69v2.17h-2.3v-8.14h3.72a4.7,4.7,0,0,1,1.92.36,2.89,2.89,0,0,1,1.25,1,2.83,2.83,0,0,1,.45,1.6,2.73,2.73,0,0,1-1.6,2.57l1.76,2.56H94.42ZM94,345.68a1.59,1.59,0,0,0-1.07-.32H91.69v2.39H93a1.64,1.64,0,0,0,1.07-.31,1.1,1.1,0,0,0,.36-.88A1.09,1.09,0,0,0,94,345.68Z"/><path class="cls-1" d="M99.61,345.37h-2.5v-1.82h7.29v1.82h-2.49v6.32h-2.3Z"/><path class="cls-1" d="M106.07,350.86a3.75,3.75,0,0,1-1-2.8v-4.51h2.3V348c0,1.3.52,1.95,1.55,1.95s1.53-.65,1.53-1.95v-4.44h2.27v4.51a3.75,3.75,0,0,1-1,2.8,4.5,4.5,0,0,1-5.63,0Z"/><path class="cls-1" d="M119.72,347.44h2v3.37a5.17,5.17,0,0,1-1.6.77,6.3,6.3,0,0,1-1.81.27,4.89,4.89,0,0,1-2.31-.54,4,4,0,0,1-1.6-1.51,4.41,4.41,0,0,1,0-4.37,4,4,0,0,1,1.62-1.5,4.94,4.94,0,0,1,2.33-.54,5.17,5.17,0,0,1,2.05.38,3.89,3.89,0,0,1,1.51,1.1l-1.46,1.33a2.58,2.58,0,0,0-2-.91,2.2,2.2,0,0,0-2.33,2.33,2.48,2.48,0,0,0,.29,1.2,2.18,2.18,0,0,0,.82.83,2.48,2.48,0,0,0,1.2.29,2.91,2.91,0,0,0,1.24-.27Z"/><path class="cls-1" d="M128.67,350.1h-3.44l-.64,1.59h-2.35l3.59-8.14h2.27l3.6,8.14h-2.39Zm-.67-1.69-1-2.61-1,2.61Z"/><path class="cls-1" d="M132.35,343.55h2.31v6.31h3.88v1.83h-6.19Z"/><path class="cls-1" d="M143.77,351.6a4.7,4.7,0,0,1-1.51-.65l.76-1.69a4.88,4.88,0,0,0,1.26.58,5.05,5.05,0,0,0,1.42.22c.88,0,1.33-.22,1.33-.66a.55.55,0,0,0-.38-.52,7.63,7.63,0,0,0-1.22-.36,11.54,11.54,0,0,1-1.53-.42,2.56,2.56,0,0,1-1.06-.73,2,2,0,0,1-.44-1.35,2.28,2.28,0,0,1,.41-1.34,2.74,2.74,0,0,1,1.21-.95,5.06,5.06,0,0,1,2-.34,7,7,0,0,1,1.58.18,5,5,0,0,1,1.38.52l-.71,1.71a4.73,4.73,0,0,0-2.26-.62,1.85,1.85,0,0,0-1,.2.6.6,0,0,0-.31.53.53.53,0,0,0,.37.49,7.17,7.17,0,0,0,1.2.33,12.79,12.79,0,0,1,1.54.43,2.6,2.6,0,0,1,1.05.72,1.92,1.92,0,0,1,.45,1.34,2.31,2.31,0,0,1-.4,1.33,2.79,2.79,0,0,1-1.23.94,4.85,4.85,0,0,1-2,.36A7.22,7.22,0,0,1,143.77,351.6Z"/><path class="cls-1" d="M156,343.91a2.89,2.89,0,0,1,1.25,1,2.83,2.83,0,0,1,.45,1.6,2.77,2.77,0,0,1-1.7,2.63,4.57,4.57,0,0,1-1.92.37h-1.42v2.13h-2.3v-8.14h3.72A4.73,4.73,0,0,1,156,343.91Zm-1,3.53a1.1,1.1,0,0,0,.36-.88,1.09,1.09,0,0,0-.36-.88,1.59,1.59,0,0,0-1.07-.32h-1.28v2.39h1.28A1.64,1.64,0,0,0,155,347.44Z"/><path class="cls-1" d="M163.85,350.1h-3.44l-.64,1.59h-2.35l3.59-8.14h2.27l3.6,8.14h-2.39Zm-.68-1.69-1-2.61-1,2.61Z"/><path class="cls-1" d="M167.53,343.55h2.3v8.14h-2.3Z"/><path class="cls-1" d="M179.21,343.55v8.14h-1.89l-3.59-4.34v4.34h-2.26v-8.14h1.9l3.59,4.33v-4.33Z"/><path class="cls-2" d="M18,109.78v27.11a5.6,5.6,0,0,0,6.47,5.53c7-1.09,17.83-3.37,22.79-7.47,7.13-5.89,7.72-18.6-2-25.21-4.8-3.26-14.62-4.82-21.07-5.53A5.6,5.6,0,0,0,18,109.78Z"/><path d="M47.22,135.43c-4,3.34-12,5.47-18.61,6.74-1.48.29-2.9.53-4.18.73a4.59,4.59,0,0,1-.73.06c7.29-4.17,13.44-10.28,13.44-19,0-8-5.18-14.34-11.67-19.12,1.44.17,3,.38,4.63.65,5.55.9,11.65,2.37,15.12,4.73C54.94,116.83,54.34,129.54,47.22,135.43Z" style="fill:#41a958"/><path class="cls-2" d="M105.58,56.64c0-5.16,7.33-7.65,14.13-7.65s54.38,16.3,54.38,50.55-51.88,58.36-59.7,58.36-8.48-7.82-5.82-10.48,41.92-8.19,40.08-43.89c-1.37-26.56-28-35.79-37.27-38.2a7.55,7.55,0,0,1-5.6-6.1A15.58,15.58,0,0,1,105.58,56.64Z"/><path class="cls-1" d="M131.29,81.75a.66.66,0,0,1,.46-.17c6.1.29,12.91,11.86,12.91,16v6.78a.64.64,0,0,1-1,.53c-3.17-2.15-12.79-9.13-13.63-15C129.22,84.24,130.69,82.29,131.29,81.75Z"/><path class="cls-1" d="M92.17,93.71c.38,3,25.38.25,25.38-10.47,0-8.48-5.48-12-9.64-12C102.09,71.27,89.92,76,92.17,93.71Z"/><path class="cls-1" d="M107.41,129.38c0-6.46,4.38-12.86,19.53-13.77a7.12,7.12,0,0,1,5.94,2.52c.08.09,0,0,0,0,.64,1.72-1,5.86-3.09,10.67C126.7,136,122.54,137,119.05,137S107.41,135.2,107.41,129.38Z"/><path class="cls-1" d="M81.21,107.79a2,2,0,0,1,2.18-1.57c4.65,0,12,10.28,12,14.93,0,5.57-2.24,7.65-6.49,7.65s-8.31-4-8.31-11.14A81.24,81.24,0,0,1,81.21,107.79Z"/><path class="cls-4" d="M159.29.44c3.68-1.94,7.65,2.82,7.65,9s-15.8,29.31-15.8,29.31a8.5,8.5,0,0,1-6.48,2c-1.78-.2-2.5-.5-3-1s-2.33-3.33-1.83-5.82S155.3,3.76,155.3,3.76,156.13,2.1,159.29.44Z"/><path class="cls-4" d="M192.21,25.88c2.49,2.49,2.83,7.65,1.5,8.48s-11.36,7.31-14.25,11-8,8.77-10.75,9.37-3.6,1.06-5.27,0-3.55-2.39-3.49-4.54c.1-3.85,3.33-6,4.82-7.33s6-6.81,9.32-9,5.32-2.83,7.64-4.66a27.83,27.83,0,0,1,4.83-3.32C188.88,24.55,192.21,25.88,192.21,25.88Z"/><path class="cls-4" d="M188.72,62.62c5.65-1.49,17-3,17.95,0s0,6-2.32,6.23a72.76,72.76,0,0,0-13,3.42c-3.16,1.33-10.15,3.16-12,2.32s-2.12-2.16-1.73-4.32a7.35,7.35,0,0,1,5.22-6C186.22,63.45,188.72,62.62,188.72,62.62Z"/><path class="cls-4" d="M.23,80.56A3.82,3.82,0,0,1,5,76.93C19.81,80.88,64.18,95.15,64.18,124c0,30.13-27,45.17-57.65,47A6.18,6.18,0,0,1,0,164.83v-9.07a6.18,6.18,0,0,1,5-6c11.21-2.26,37.48-9.36,37.48-26.23,0-18-30-27.54-39.55-30.12A3.83,3.83,0,0,1,.06,89.58Z"/><path class="cls-2" d="M5.35,20.15a3,3,0,0,1,3.4-3c10.64,1.33,42.46,7.22,42.46,30.16,0,26.46-17.48,42.4-42.72,43.62a3,3,0,0,1-3.17-3V76.25a3,3,0,0,1,2.38-3c6.86-1.48,26.22-6.78,26.22-19.42,0-13.73-17.42-20.18-25.87-21.39a3,3,0,0,1-2.61-3Z"/><path d="M12,18.72h0a1.94,1.94,0,0,1,2.16-1.93c9.17,1,44.4,6.76,44.4,33.37,0,29-30.53,41.28-44.45,42.46A1.94,1.94,0,0,1,12,90.68V81.39a3.84,3.84,0,0,1,3.19-3.77c8.56-1.49,31.4-7.09,31.4-24.48,0-20.3-12.87-26.92-31.51-30.67A3.83,3.83,0,0,1,12,18.72Z" style="fill:#00afd5"/><path class="cls-6" d="M8.87,14.3V4.41a2.3,2.3,0,0,1,2.5-2.3C23.54,3.17,76,10.08,76,50.26S23.52,97.18,11.36,98.2a2.3,2.3,0,0,1-2.49-2.29V91.53a2.3,2.3,0,0,1,2-2.28C19.53,88,54.32,81,54.32,52.7S19.58,17.8,10.84,16.58A2.3,2.3,0,0,1,8.87,14.3Z"/><path class="cls-4" d="M116.83,42.28c0,4,2.2,5.3,6,6.21,5,1.19,49.44,10.46,49.44,44.14,0,34.27-33.55,47.41-51.51,49.6a4.46,4.46,0,0,0-3.92,4.43v9.22a4.46,4.46,0,0,0,5.33,4.38c15-3,56.3-15.43,56.3-62,0-39.08-39.68-59.48-55.64-59.48C117.94,38.73,116.83,42.28,116.83,42.28Z"/><path class="cls-6" d="M125.7,54.7c0-2.22,1.74-3.22,4.57-3.22S168.71,63.56,168.71,90c0,28-22.22,42.56-38.37,44.85a3.83,3.83,0,0,1-4.36-3.74l-.07-4.91a3.81,3.81,0,0,1,3.3-3.83c9.5-1.26,35.95-7.15,35.95-33.7,0-21.18-26.49-30.82-36.79-30.82A2.47,2.47,0,0,1,125.7,54.7Z"/><path class="cls-6" d="M116.72,50.16c0-9.32-62.4,2.54-62.18,58.52.23,57.86,60.52,63.51,67.17,63.51s6.66-10.3,6.66-10.3-1.27-9.46-7.66-9.65c-11.31-.33-41.9-14.3-41.9-43.56,0-32.26,20.85-45.34,35.92-51.88C118.42,55.2,116.72,50.16,116.72,50.16Z"/></g></g></svg>